<svg width="24" height="24" viewBox="0 0 24 24" fill="none" xmlns="http://www.w3.org/2000/svg">
<path d="M23.6814 10.5631C23.6723 10.5541 23.6672 10.5419 23.6672 10.5291C23.6562 5.16001 19.2104 0.795776 13.7468 0.795776C8.2764 0.795776 3.82638 5.17085 3.82638 10.5491C3.82638 12.0126 4.14078 13.454 4.7496 14.7161C4.87962 14.9856 4.81319 15.3087 4.62002 15.5373V15.5373L1.78561 18.3239C1.49111 18.5812 1.25322 18.895 1.08653 19.246C0.919841 19.597 0.827876 19.9777 0.816284 20.3649C0.804691 20.7521 0.873713 21.1375 1.01911 21.4975C1.16451 21.8576 1.38322 22.1845 1.66181 22.4584C1.94041 22.7323 2.273 22.9474 2.63917 23.0903C3.00535 23.2333 3.39738 23.3011 3.7912 23.2897C4.18501 23.2783 4.5723 23.1879 4.92929 23.024C5.28628 22.8602 5.60543 22.6263 5.86715 22.3367L8.70156 19.5501V19.5501C8.9356 19.32 9.29015 19.2259 9.58682 19.3661C10.8533 19.9649 12.2814 20.3303 13.7751 20.3303C19.2388 20.3303 23.6845 15.9661 23.6956 10.597C23.6956 10.5843 23.6905 10.572 23.6814 10.5631V10.5631ZM20.8186 10.5352C20.8277 10.5441 20.8328 10.5564 20.8328 10.5691C20.822 14.4332 17.6798 17.5158 13.7468 17.5158C11.8761 17.5158 10.1471 16.847 8.87163 15.6766C8.84328 15.6487 8.81494 15.6209 8.78659 15.593C8.67534 15.4614 8.552 15.3401 8.41812 15.2307C7.28436 14.0046 6.63244 12.3326 6.63244 10.5213C6.63244 6.64778 9.77864 3.55458 13.7185 3.55458C17.6515 3.55458 20.7936 6.63715 20.8044 10.5013C20.8045 10.514 20.8096 10.5263 20.8186 10.5352V10.5352Z" fill="black"/>
</svg>
